<svg version="1.2" xmlns="http://www.w3.org/2000/svg" viewBox="0 0 160 66" width="160" height="66">
	<style>
		tspan { white-space:pre } 
		.s0 { fill: #000000 } 
	</style>
	<path class="s0" d="m53.13 23.33h-3.85c-0.58 1.79-3.83 7.33-6.21 11.16-2.47-3.83-5.8-9.36-6.41-11.16h-3.85c0.41 1.93 0.44 6.45 0.44 9.67 0 3.23-0.03 7.74-0.44 9.67h3.74c-0.39-1.84-0.44-10.02-0.44-14.21 2.41 3.66 4.74 7.52 6.35 10.38h1.02c1.55-2.89 3.94-6.75 6.35-10.44 0 4.16-0.05 12.4-0.44 14.27h3.74c-0.41-1.93-0.44-6.45-0.44-9.67 0-3.22 0.03-7.74 0.44-9.67zm-48.13 9.75c0 5.71 4.27 9.92 10.01 9.92 5.74 0 10.17-4.33 10.17-10.08 0-5.76-4.26-9.92-10-9.92-5.74 0-10.18 4.33-10.18 10.08zm3.22-0.41c0-4.32 2.63-7.19 6.6-7.19 4.46 0 7.15 3.58 7.15 7.85 0 4.27-2.64 7.19-6.6 7.19-4.46 0-7.15-3.58-7.15-7.85zm53.51 10h3.74c-0.39-1.82-0.44-9.2-0.44-14.29 4.07 4.79 8.07 9.42 11.09 14.29h3.3c-0.42-2.12-0.47-6.41-0.47-9.67 0-3.25 0.05-7.74 0.47-9.67h-3.74c0.39 1.82 0.44 9.2 0.44 14.3-4.08-4.82-8.07-9.53-11.09-14.3h-3.3c0.41 1.93 0.44 6.45 0.44 9.67 0 3.23-0.03 7.74-0.44 9.67zm26.29 0h3.74c-0.42-1.93-0.45-6.41-0.45-9.64 0-3.22 0.03-7.77 0.45-9.7h-3.74c0.41 1.93 0.44 6.48 0.44 9.7 0 3.23-0.03 7.71-0.44 9.64zm10-19.34c1.61 1.93 4.72 6.81 7.82 12.18v2.62c0 1.65-0.02 3.27-0.3 4.54h3.71c-0.27-1.27-0.3-2.89-0.3-4.54v-2.62c3.11-5.37 6.18-10.25 7.82-12.18h-4.02c-0.44 1.96-3.33 6.62-5.13 9.45-1.86-2.83-4.83-7.49-5.3-9.45h-4.29zm19.46 19.34h4.02c0.28-1.96 3.8-9.23 5.82-13.36 2.05 4.13 5.66 11.4 5.94 13.36h4.29c-1.33-1.93-6.04-11.27-10.03-19.67-4 8.4-8.49 17.74-10.04 19.67zm21.21-16.14c1.94-0.42 4.21-0.44 6.71-0.44 0 5.5-0.03 14.65-0.44 16.58h3.77c-0.42-1.93-0.45-11.07-0.45-16.58 2.5 0 4.77 0.02 6.71 0.44v-3.2h-16.3v3.2z"/>
	<text id="" style="transform: matrix(1,0,0,1,57,-18)" >
	</text>
</svg>