<svg viewBox="0 0 801.005 365.002" xmlns="http://www.w3.org/2000/svg" width="2500" height="1139"><path d="M94.5 71.076c-10.546 1.569-17.426 4.747-23.539 10.873-8.287 8.305-10.179 17.985-5.818 29.763 2.841 7.673 12.733 17.424 31.368 30.918 16.59 12.013 23.971 18.958 27.85 26.204 2.521 4.709 2.81 6.14 2.466 12.218-.437 7.732-1.943 10.475-8.529 15.532-7.75 5.949-22.706 6.951-36.36 2.435-5.874-1.943-10.204-4.197-18.377-9.566l-2.94-1.931 3.94 7.311c4.457 8.273 5.994 9.368 17.157 12.223 10.248 2.621 24.406 2.598 34.786-.057 12.597-3.222 20.266-8.489 24.994-17.166 2.41-4.424 2.976-6.805 3.321-13.973.926-19.262-5.854-28.113-39.319-51.329-7.7-5.342-15.965-11.584-18.367-13.872-9.599-9.142-10.571-19.536-2.525-26.996 8.096-7.507 26.698-7.637 41.328-.289l5.253 2.639-3.5-6.257c-3.144-5.618-3.944-6.369-7.845-7.366-6.604-1.687-18.641-2.312-25.344-1.314m132 5.81c-23.615 6.864-39.418 24.492-44.678 49.84-3.537 17.04-1.439 33.347 6.331 49.216 14.6 29.815 52.081 41.92 81.869 26.44 26.852-13.955 40.023-49.651 30.399-82.392-6.185-21.042-24.308-38.686-44.667-43.486-8.357-1.97-21.762-1.795-29.254.382m459.042 1.24C683.333 82.953 633 206.067 633 206.642c0 .263 1.663.339 3.697.168l3.696-.31 7.64-18.5 7.64-18.5h50.522l7.615 18.75 7.614 18.75h9.788c5.383 0 9.788-.366 9.788-.812 0-.447-7.009-17.885-15.576-38.75a30648.932 30648.932 0 0 1-26.566-64.921c-6.045-14.84-11.166-27.159-11.381-27.374s-1.086 1.128-1.935 2.983M350 141.887V207l22.25-.035c25.194-.039 33.917-1.178 43.75-5.711 8.663-3.995 14.281-9.086 17.684-16.03 2.404-4.905 2.806-6.942 2.811-14.242.004-7.614-.344-9.227-3.282-15.197-4.981-10.123-13.421-16.842-26.162-20.825l-5.449-1.703 3.259-1.685c4.799-2.482 11.025-8.428 13.116-12.527 5.987-11.736 2.078-26.846-8.81-34.058-8.949-5.928-15.396-7.228-38.417-7.746L350 76.773zM485 142v65h19v-69h69v69.072l9.511-.286 9.51-.286.021-64.5.02-64.5-9.531-.286-9.531-.286V130h-69V77h-19zM233.746 83.023c-10.598 2.675-20.986 11.567-26.673 22.832-6.063 12.012-8.902 30.452-7.096 46.107 3.081 26.72 14.173 43.325 32.451 48.579 16.532 4.753 35.337-4.303 43.859-21.12 5.85-11.545 7.213-18.522 7.213-36.921 0-13.133-.402-18.479-1.767-23.5-5.89-21.67-19.972-35.456-37.289-36.504-3.819-.231-8.633.006-10.698.527M369 141.85V200h8.668c12.211 0 20.305-1.632 26.524-5.348 4.41-2.636 5.86-4.285 8.739-9.94 3.096-6.082 3.454-7.627 3.473-14.996.027-10.624-2.191-17.151-8.04-23.656-4.021-4.473-11.511-9.054-18.864-11.538-1.827-.618-1.741-.809 1-2.221 7.605-3.915 11.281-10.304 12.194-21.193.784-9.348-1.016-16.363-5.296-20.643-4.024-4.025-8.032-5.274-19.648-6.124l-8.75-.64zm301.221-8.1c-5.572 13.613-10.424 25.537-10.783 26.5-.608 1.633.787 1.75 20.788 1.75 11.793 0 21.671-.23 21.953-.512.597-.597-20.4-52.429-21.253-52.464-.315-.013-5.133 11.113-10.705 24.726M377.605 279.087c-3.083 7.809-5.605 14.584-5.605 15.055 0 .472 1.314.858 2.921.858 2.432 0 3.03-.502 3.579-3 .652-2.969.727-3 7.36-3 6.528 0 6.731.078 7.834 3 .92 2.439 1.708 3 4.211 3h3.079l-1.48-3.75c-.814-2.062-3.411-8.7-5.771-14.75-4.098-10.504-4.432-11.014-7.407-11.306l-3.116-.305zM301 280.5V295h3c2.97 0 3-.056 3-5.5V284l3.25.028c2.856.025 3.652.692 6.562 5.5 2.805 4.637 3.76 5.472 6.25 5.472 1.616 0 2.938-.195 2.938-.434 0-.238-1.378-2.65-3.063-5.36l-3.062-4.927 3.188-3.188c2.847-2.847 3.127-3.635 2.625-7.379-.882-6.58-3.054-7.712-14.799-7.712H301zm39 .033v14.533l11.25-.283c10.489-.264 11.25-.418 11.25-2.283 0-1.815-.763-2.027-8.25-2.29l-8.25-.291v-6.824l6.25-.297c5.614-.268 6.283-.527 6.57-2.548.303-2.137-.01-2.25-6.25-2.25H346v-8.144l5.396.674c7.157.895 11.604-.106 11.604-2.609 0-1.783-.825-1.921-11.5-1.921H340zm73-.033V295h21v-2.5c0-2.444-.167-2.5-7.5-2.5H419v-24h-6zm27-12c0 2.333.333 2.5 5 2.5h5v24h6v-24h5c4.667 0 5-.167 5-2.5V266h-26zm36-1.889c0 .336 2.25 4.336 5 8.889 4.422 7.322 5 8.926 5 13.889 0 5.568.023 5.611 3 5.611 2.965 0 3-.064 3-5.427 0-4.772.615-6.43 5.102-13.75 2.806-4.577 5.308-8.66 5.559-9.073s-1.032-.745-2.852-.738c-3.008.011-3.609.558-6.613 6.026-1.817 3.308-3.701 5.768-4.188 5.467s-2.296-3.013-4.02-6.026c-2.676-4.676-3.563-5.479-6.061-5.479-1.61 0-2.927.275-2.927.611m-169 8.513v5.124l5.592-.464c5.853-.485 7.366-1.623 7.393-5.559.018-2.704-3.239-4.225-9.05-4.225H307zm76.735 2.76c-2.402 6.763-2.29 7.116 2.265 7.116 2.531 0 4.002-.459 4.005-1.25.007-1.804-3.295-10.75-3.968-10.75-.312 0-1.348 2.198-2.302 4.884" fill="#090909" fill-rule="evenodd"/><path d="M0 182.501v182.501l400.25-.251 400.25-.251.253-182.25L801.005 0H0zm.489.499c0 100.375.118 141.438.261 91.25.143-50.187.143-132.312 0-182.5C.607 41.563.489 82.625.489 183M94.5 71.076c-10.546 1.569-17.426 4.747-23.539 10.873-8.287 8.305-10.179 17.985-5.818 29.763 2.841 7.673 12.733 17.424 31.368 30.918 16.59 12.013 23.971 18.958 27.85 26.204 2.521 4.709 2.81 6.14 2.466 12.218-.437 7.732-1.943 10.475-8.529 15.532-7.75 5.949-22.706 6.951-36.36 2.435-5.874-1.943-10.204-4.197-18.377-9.566l-2.94-1.931 3.94 7.311c4.457 8.273 5.994 9.368 17.157 12.223 10.248 2.621 24.406 2.598 34.786-.057 12.597-3.222 20.266-8.489 24.994-17.166 2.41-4.424 2.976-6.805 3.321-13.973.926-19.262-5.854-28.113-39.319-51.329-7.7-5.342-15.965-11.584-18.367-13.872-9.599-9.142-10.571-19.536-2.525-26.996 8.096-7.507 26.698-7.637 41.328-.289l5.253 2.639-3.5-6.257c-3.144-5.618-3.944-6.369-7.845-7.366-6.604-1.687-18.641-2.312-25.344-1.314m132 5.81c-23.615 6.864-39.418 24.492-44.678 49.84-3.537 17.04-1.439 33.347 6.331 49.216 14.6 29.815 52.081 41.92 81.869 26.44 26.852-13.955 40.023-49.651 30.399-82.392-6.185-21.042-24.308-38.686-44.667-43.486-8.357-1.97-21.762-1.795-29.254.382m459.042 1.24C683.333 82.953 633 206.067 633 206.642c0 .263 1.663.339 3.697.168l3.696-.31 7.64-18.5 7.64-18.5h50.522l7.615 18.75 7.614 18.75h9.788c5.383 0 9.788-.366 9.788-.812 0-.447-7.009-17.885-15.576-38.75a30648.932 30648.932 0 0 1-26.566-64.921c-6.045-14.84-11.166-27.159-11.381-27.374s-1.086 1.128-1.935 2.983M350 141.887V207l22.25-.035c25.194-.039 33.917-1.178 43.75-5.711 8.663-3.995 14.281-9.086 17.684-16.03 2.404-4.905 2.806-6.942 2.811-14.242.004-7.614-.344-9.227-3.282-15.197-4.981-10.123-13.421-16.842-26.162-20.825l-5.449-1.703 3.259-1.685c4.799-2.482 11.025-8.428 13.116-12.527 5.987-11.736 2.078-26.846-8.81-34.058-8.949-5.928-15.396-7.228-38.417-7.746L350 76.773zM485 142v65h19v-69h69v69.072l9.511-.286 9.51-.286.021-64.5.02-64.5-9.531-.286-9.531-.286V130h-69V77h-19zM233.746 83.023c-10.598 2.675-20.986 11.567-26.673 22.832-6.063 12.012-8.902 30.452-7.096 46.107 3.081 26.72 14.173 43.325 32.451 48.579 16.532 4.753 35.337-4.303 43.859-21.12 5.85-11.545 7.213-18.522 7.213-36.921 0-13.133-.402-18.479-1.767-23.5-5.89-21.67-19.972-35.456-37.289-36.504-3.819-.231-8.633.006-10.698.527M369 141.85V200h8.668c12.211 0 20.305-1.632 26.524-5.348 4.41-2.636 5.86-4.285 8.739-9.94 3.096-6.082 3.454-7.627 3.473-14.996.027-10.624-2.191-17.151-8.04-23.656-4.021-4.473-11.511-9.054-18.864-11.538-1.827-.618-1.741-.809 1-2.221 7.605-3.915 11.281-10.304 12.194-21.193.784-9.348-1.016-16.363-5.296-20.643-4.024-4.025-8.032-5.274-19.648-6.124l-8.75-.64zm301.221-8.1c-5.572 13.613-10.424 25.537-10.783 26.5-.608 1.633.787 1.75 20.788 1.75 11.793 0 21.671-.23 21.953-.512.597-.597-20.4-52.429-21.253-52.464-.315-.013-5.133 11.113-10.705 24.726M377.605 279.087c-3.083 7.809-5.605 14.584-5.605 15.055 0 .472 1.314.858 2.921.858 2.432 0 3.03-.502 3.579-3 .652-2.969.727-3 7.36-3 6.528 0 6.731.078 7.834 3 .92 2.439 1.708 3 4.211 3h3.079l-1.48-3.75c-.814-2.062-3.411-8.7-5.771-14.75-4.098-10.504-4.432-11.014-7.407-11.306l-3.116-.305zM301 280.5V295h3c2.97 0 3-.056 3-5.5V284l3.25.028c2.856.025 3.652.692 6.562 5.5 2.805 4.637 3.76 5.472 6.25 5.472 1.616 0 2.938-.195 2.938-.434 0-.238-1.378-2.65-3.063-5.36l-3.062-4.927 3.188-3.188c2.847-2.847 3.127-3.635 2.625-7.379-.882-6.58-3.054-7.712-14.799-7.712H301zm39 .033v14.533l11.25-.283c10.489-.264 11.25-.418 11.25-2.283 0-1.815-.763-2.027-8.25-2.29l-8.25-.291v-6.824l6.25-.297c5.614-.268 6.283-.527 6.57-2.548.303-2.137-.01-2.25-6.25-2.25H346v-8.144l5.396.674c7.157.895 11.604-.106 11.604-2.609 0-1.783-.825-1.921-11.5-1.921H340zm73-.033V295h21v-2.5c0-2.444-.167-2.5-7.5-2.5H419v-24h-6zm27-12c0 2.333.333 2.5 5 2.5h5v24h6v-24h5c4.667 0 5-.167 5-2.5V266h-26zm36-1.889c0 .336 2.25 4.336 5 8.889 4.422 7.322 5 8.926 5 13.889 0 5.568.023 5.611 3 5.611 2.965 0 3-.064 3-5.427 0-4.772.615-6.43 5.102-13.75 2.806-4.577 5.308-8.66 5.559-9.073s-1.032-.745-2.852-.738c-3.008.011-3.609.558-6.613 6.026-1.817 3.308-3.701 5.768-4.188 5.467s-2.296-3.013-4.02-6.026c-2.676-4.676-3.563-5.479-6.061-5.479-1.61 0-2.927.275-2.927.611m-169 8.513v5.124l5.592-.464c5.853-.485 7.366-1.623 7.393-5.559.018-2.704-3.239-4.225-9.05-4.225H307zm76.735 2.76c-2.402 6.763-2.29 7.116 2.265 7.116 2.531 0 4.002-.459 4.005-1.25.007-1.804-3.295-10.75-3.968-10.75-.312 0-1.348 2.198-2.302 4.884" fill="none"/></svg>